<svg xmlns="http://www.w3.org/2000/svg" xmlns:xlink="http://www.w3.org/1999/xlink" aria-hidden="true" role="img" class="iconify iconify--logos" width="31.88" height="32" preserveAspectRatio="xMidYMid meet" viewBox="0 0 256 257"><defs><linearGradient id="IconifyId1813088fe14b0c05a0" x1="-46.062%" x2="58.246%" y1="13.513%" y2="92.113%"><stop offset="0%" stop-color="#41D1FF"></stop><stop offset="100%" stop-color="#BD34FE"></stop></linearGradient><linearGradient id="IconifyId1813088fe14b0c05a1" x1="19.51%" x2="90.304%" y1="41.16%" y2="88.868%"><stop offset="0%" stop-color="#FFEA83"></stop><stop offset="8.333%" stop-color="#FFDD35"></stop><stop offset="100%" stop-color="#FFA800"></stop></linearGradient></defs><path fill="url(#IconifyId1813088fe14b0c05a0)" d="M255.803 134.586L146.363 253.08a9.149 9.149 0 0 1-14.666-2.497L1.097 31.079a9.15 9.15 0 0 1 12.576-12.02L248.83 121.26a9.149 9.149 0 0 1 6.973 13.326z"></path><path fill="url(#IconifyId1813088fe14b0c05a1)" d="M185.032 30.519l-44.317 12.315a6.099 6.099 0 0 0-4.423 5.86v60.21a6.099 6.099 0 0 0 3.963 5.7l44.317 17.27a6.099 6.099 0 0 0 8.188-5.7V36.219a6.099 6.099 0 0 0-7.728-5.7z"></path></svg>